<svg viewBox="0 0 16 12" stroke="none" xmlns="http://www.w3.org/2000/svg">
<path d="M11.5341 5H15.4661C15.5136 5.00002 15.5601 5.01357 15.6002 5.03907C15.6403 5.06457 15.6722 5.10096 15.6924 5.14398C15.7125 5.187 15.72 5.23487 15.7139 5.28198C15.7079 5.32909 15.6885 5.3735 15.6581 5.41L13.6921 7.77C13.6686 7.79814 13.6393 7.82077 13.6061 7.8363C13.5729 7.85184 13.5367 7.85989 13.5001 7.85989C13.4635 7.85989 13.4273 7.85184 13.3941 7.8363C13.3609 7.82077 13.3315 7.79814 13.3081 7.77L11.3421 5.41C11.3117 5.3735 11.2923 5.32909 11.2862 5.28198C11.2802 5.23487 11.2876 5.187 11.3078 5.14398C11.3279 5.10096 11.3599 5.06457 11.4 5.03907C11.4401 5.01357 11.4866 5.00002 11.5341 5ZM0.534086 7H4.46609C4.51359 6.99998 4.56011 6.98643 4.60019 6.96093C4.64027 6.93543 4.67225 6.89905 4.6924 6.85603C4.71254 6.81301 4.72002 6.76514 4.71394 6.71802C4.70786 6.67091 4.68849 6.6265 4.65809 6.59L2.69209 4.23C2.66862 4.20187 2.63926 4.17923 2.60609 4.1637C2.57291 4.14817 2.53672 4.14011 2.50009 4.14011C2.46345 4.14011 2.42726 4.14817 2.39409 4.1637C2.36091 4.17923 2.33155 4.20187 2.30809 4.23L0.342086 6.59C0.311684 6.6265 0.29231 6.67091 0.286234 6.71802C0.280157 6.76514 0.287629 6.81301 0.307775 6.85603C0.327921 6.89905 0.359907 6.93543 0.399987 6.96093C0.440067 6.98643 0.486583 6.99998 0.534086 7Z" />
<path d="M8.00001 1C6.44801 1 5.06001 1.707 4.14301 2.818C4.10206 2.87108 4.05086 2.91537 3.99245 2.94826C3.93404 2.98115 3.86961 3.00196 3.803 3.00945C3.73638 3.01694 3.66895 3.01096 3.60469 2.99186C3.54043 2.97276 3.48068 2.94094 3.42897 2.89828C3.37726 2.85563 3.33465 2.80301 3.30368 2.74356C3.27272 2.68411 3.25402 2.61904 3.24871 2.55221C3.24339 2.48539 3.25157 2.41818 3.27275 2.35458C3.29394 2.29099 3.32769 2.2323 3.37201 2.182C4.1042 1.29553 5.0756 0.638015 6.17067 0.287659C7.26575 -0.0626959 8.43841 -0.091146 9.54918 0.205693C10.66 0.502532 11.6621 1.11217 12.4364 1.96209C13.2107 2.81201 13.7246 3.86646 13.917 5H12.9C12.6691 3.87081 12.0554 2.856 11.1625 2.12715C10.2697 1.3983 9.15256 1.00014 8.00001 1ZM3.10001 7C3.28932 7.92463 3.73636 8.77683 4.38949 9.45814C5.04261 10.1395 5.87517 10.6221 6.79097 10.8503C7.70677 11.0785 8.66845 11.0429 9.5649 10.7477C10.4613 10.4525 11.256 9.9097 11.857 9.182C11.898 9.12893 11.9492 9.08463 12.0076 9.05174C12.066 9.01886 12.1304 8.99805 12.197 8.99056C12.2636 8.98307 12.3311 8.98905 12.3953 9.00815C12.4596 9.02725 12.5193 9.05907 12.5711 9.10172C12.6228 9.14438 12.6654 9.197 12.6963 9.25645C12.7273 9.3159 12.746 9.38097 12.7513 9.44779C12.7566 9.51462 12.7484 9.58183 12.7273 9.64542C12.7061 9.70902 12.6723 9.76771 12.628 9.818C11.8958 10.7045 10.9244 11.362 9.82934 11.7123C8.73427 12.0627 7.56161 12.0912 6.45083 11.7943C5.34006 11.4975 4.33791 10.8878 3.5636 10.0379C2.78928 9.18799 2.27538 8.13355 2.08301 7H3.10001Z" />
</svg>
