<svg width="24" height="24" viewBox="0 0 24 24" fill="none" xmlns="http://www.w3.org/2000/svg">
<path fill-rule="evenodd" clip-rule="evenodd" d="M5.1725 5.994C4.4425 6.923 4 8.192 4 9.5175C4 12.4875 5.9825 14.981 8.075 16.7755C9.28118 17.8012 10.595 18.6931 11.9935 19.4355L12.1195 19.3655C13.4721 18.5979 14.7455 17.6983 15.921 16.68C18.022 14.8455 20 12.3525 20 9.517C20 8.192 19.5575 6.9225 18.828 5.9935C18.1 5.0685 17.1065 4.5 15.9845 4.5C14.433 4.5 13.2295 5.51 12.449 7.101L12 8.015L11.551 7.101C10.7705 5.51 9.567 4.5 8.016 4.5C6.8935 4.5 5.9 5.068 5.1725 5.994ZM12 20L11.783 20.45L11.7805 20.449L11.775 20.4465L11.7545 20.4365C11.6351 20.3768 11.5166 20.3155 11.399 20.2525C9.98238 19.4886 8.65019 18.5776 7.4245 17.5345C5.2675 15.6855 3 12.9375 3 9.517C3 7.9795 3.5105 6.49 4.386 5.376C5.264 4.259 6.528 3.5 8.016 3.5C9.7675 3.5 11.0995 4.4815 12 5.867C12.9 4.482 14.2325 3.5 15.9845 3.5C17.472 3.5 18.7365 4.259 19.6145 5.3765C20.489 6.49 21 7.98 21 9.5175C21 12.8085 18.728 15.557 16.579 17.433C15.2713 18.5653 13.8477 19.5565 12.332 20.39L12.2565 20.43L12.2365 20.441L12.2305 20.4435L12.229 20.4445H12.2285C12.2285 20.4445 12.228 20.445 12 20ZM12 20L12.2285 20.445L12.007 20.5585L11.783 20.4505L12 20Z" fill="black"/>
</svg>
