<svg width="13" height="21" viewBox="0 0 13 21" stroke="none" xmlns="http://www.w3.org/2000/svg">
	<path d="M1.02632 21H11.9737C12.5395 21 13 20.5583 13 20.0156V0.984375C13 0.441656 12.5395 0 11.9737 0H1.02632C0.460474 0 0 0.441656 0 0.984375V20.0156C0 20.5583 0.460474 21 1.02632 21ZM0.684211 0.984375C0.684211 0.897351 0.720254 0.813891 0.784411 0.752356C0.848568 0.69082 0.935584 0.65625 1.02632 0.65625H11.9737C12.0644 0.65625 12.1514 0.69082 12.2156 0.752356C12.2797 0.813891 12.3158 0.897351 12.3158 0.984375V20.0156C12.3158 20.1026 12.2797 20.1861 12.2156 20.2476C12.1514 20.3092 12.0644 20.3438 11.9737 20.3438H1.02632C0.935584 20.3438 0.848568 20.3092 0.784411 20.2476C0.720254 20.1861 0.684211 20.1026 0.684211 20.0156V0.984375Z" />
	<path d="M1.71076 17.7188H11.2897C11.3804 17.7188 11.4675 17.6842 11.5316 17.6226C11.5958 17.5611 11.6318 17.4776 11.6318 17.3906V3.60938C11.6318 3.52235 11.5958 3.43889 11.5316 3.37736C11.4675 3.31582 11.3804 3.28125 11.2897 3.28125H1.71076C1.62003 3.28125 1.53301 3.31582 1.46885 3.37736C1.4047 3.43889 1.36865 3.52235 1.36865 3.60938V17.3906C1.36865 17.4776 1.4047 17.5611 1.46885 17.6226C1.53301 17.6842 1.62003 17.7188 1.71076 17.7188ZM2.05286 3.9375H10.9476V17.0625H2.05286V3.9375Z" />
	<path d="M6.84241 19.6875C7.22029 19.6875 7.52662 19.3937 7.52662 19.0312C7.52662 18.6688 7.22029 18.375 6.84241 18.375C6.46453 18.375 6.1582 18.6688 6.1582 19.0312C6.1582 19.3937 6.46453 19.6875 6.84241 19.6875Z" />
	<path d="M5.13166 2.625H7.8685C7.95923 2.625 8.04625 2.59043 8.1104 2.52889C8.17456 2.46736 8.2106 2.3839 8.2106 2.29688C8.2106 2.20985 8.17456 2.12639 8.1104 2.06486C8.04625 2.00332 7.95923 1.96875 7.8685 1.96875H5.13166C5.04092 1.96875 4.95391 2.00332 4.88975 2.06486C4.82559 2.12639 4.78955 2.20985 4.78955 2.29688C4.78955 2.3839 4.82559 2.46736 4.88975 2.52889C4.95391 2.59043 5.04092 2.625 5.13166 2.625Z" />
</svg>
