<svg width="16" height="19" viewBox="0 0 16 19" fill="none" xmlns="http://www.w3.org/2000/svg">
<path d="M14.7982 2.02716L14.7741 2.00793L11.7298 0.0915222L8.44401 5.68955L9.95572 8.26524C9.91049 9.23659 9.58811 10.153 9.04962 10.8411C8.51113 11.5292 7.7939 11.9411 7.03371 11.9989L5.01799 10.0672L0.636963 14.2657L2.12428 18.1231L2.1368 18.1556L2.15188 18.1864C2.23125 18.3498 2.34203 18.4845 2.47368 18.5778C2.60533 18.671 2.75346 18.7196 2.90398 18.719H3.68951C5.20306 18.719 6.70179 18.3381 8.10013 17.598C9.49847 16.8579 10.769 15.7731 11.8393 14.4056C12.9095 13.038 13.7585 11.4145 14.3377 9.62775C14.9169 7.84098 15.215 5.92594 15.215 3.99195V2.98818C15.2155 2.79585 15.1774 2.60657 15.1045 2.43836C15.0315 2.27014 14.9261 2.12858 14.7982 2.02716ZM14.09 3.99195C14.09 11.3198 9.42434 17.2815 3.68951 17.2815H3.05388L2.05875 14.7002L5.0182 11.864L6.66587 13.443H6.85336C7.97559 13.4414 9.05149 12.871 9.84503 11.8571C10.6386 10.8431 11.0849 9.46834 11.0862 8.03439V7.79482L9.85047 5.68951L12.0698 1.90821L14.09 3.17999V3.99195Z" fill="black"/>
</svg>
