<svg width="31" height="31" viewBox="0 0 31 31" fill="none" xmlns="http://www.w3.org/2000/svg">
<g clip-path="url(#clip0)">
<path d="M12.7875 0H11.0437L9.88125 4.45625L8.71875 0H6.78125C7.16875 1.1625 7.55625 2.13125 7.94375 3.29375C8.525 4.84375 8.9125 6.2 8.9125 6.975V11.625H10.6562V6.975L12.7875 0ZM17.4375 8.71875V5.8125C17.4375 4.84375 17.2437 4.2625 16.8562 3.68125C16.4688 3.1 15.8875 2.90625 15.1125 2.90625C14.3375 2.90625 13.7563 3.29375 13.3688 3.875C12.9813 4.2625 12.7875 4.84375 12.7875 5.8125V8.9125C12.7875 9.88125 12.9813 10.4625 13.3688 10.85C13.7563 11.4312 14.3375 11.625 15.1125 11.625C15.8875 11.625 16.4688 11.2375 16.8562 10.6562C17.2437 10.4625 17.4375 9.6875 17.4375 8.71875ZM15.8875 9.10625C15.8875 9.88125 15.6938 10.2688 15.1125 10.2688C14.5313 10.2688 14.3375 9.88125 14.3375 9.10625V5.425C14.3375 4.65 14.5313 4.2625 15.1125 4.2625C15.6938 4.2625 15.8875 4.65 15.8875 5.425V9.10625ZM23.25 11.625V2.90625H21.7V9.49375C21.3125 10.075 21.1187 10.2688 20.7312 10.2688C20.5375 10.2688 20.3438 10.075 20.3438 9.88125V2.90625H18.7937V9.6875C18.7937 10.2688 18.7938 10.6562 18.9875 11.0437C18.9875 11.4312 19.375 11.625 19.9563 11.625C20.5375 11.625 21.1187 11.2375 21.7 10.6562V11.625H23.25Z" fill="white"/>
<path d="M24.025 20.3438C23.4437 20.3438 23.25 20.7313 23.25 21.5063V22.2812H24.8V21.5063C24.8 20.7313 24.6062 20.3438 24.025 20.3438Z" fill="white"/>
<path d="M18.4062 20.3438C18.2125 20.3438 17.825 20.5375 17.6312 20.7312V25.9625C17.825 26.1562 18.2125 26.35 18.4062 26.35C18.7937 26.35 18.9875 25.9625 18.9875 25.1875V21.5063C18.9875 20.7313 18.7937 20.3438 18.4062 20.3438Z" fill="white"/>
<path d="M27.9 16.0813C27.5125 14.725 26.35 13.5625 25.1875 13.5625C22.0875 13.175 18.7938 13.175 15.5 13.175C12.2063 13.175 9.10627 13.175 5.81252 13.5625C4.65002 13.5625 3.48752 14.725 3.10002 16.0813C2.71252 18.0188 2.71252 20.15 2.71252 22.0875C2.71252 24.025 2.71252 26.1563 3.10002 28.0938C3.48752 29.4501 4.45627 30.4188 5.81252 30.6126C9.10627 31 12.2063 31 15.5 31C18.7938 31 21.8938 31 25.1875 30.6126C26.5438 30.4188 27.7063 29.4501 27.9 28.0938C28.2875 26.1563 28.2875 24.025 28.2875 22.0875C28.2875 20.15 28.2875 18.0188 27.9 16.0813ZM10.075 17.825H8.13752V27.7063H6.39377V17.825H4.65002V16.0813H10.075V17.825ZM14.725 27.7063H13.175V26.7375C12.5938 27.5125 12.0125 27.7063 11.4313 27.7063C10.85 27.7063 10.6563 27.5125 10.4625 27.125C10.4625 26.9313 10.2688 26.5438 10.2688 25.7688V18.9875H11.8188V25.7688C11.8188 25.9625 12.0125 26.1563 12.2063 26.1563C12.5938 26.1563 12.7875 25.9626 13.175 25.3813V18.9875H14.725V27.7063ZM20.5375 24.9938C20.5375 25.7688 20.5375 26.35 20.3438 26.7375C20.15 27.3188 19.7625 27.7063 19.1813 27.7063C18.6 27.7063 18.0188 27.3188 17.6313 26.7375V27.5125H16.0813V16.0813H17.6313V19.7625C18.2125 19.1813 18.6 18.7938 19.1813 18.7938C19.7625 18.7938 20.15 19.1813 20.3438 19.7625C20.5375 20.15 20.5375 20.7313 20.5375 21.5063V24.9938ZM26.35 23.6375H23.25V25.1875C23.25 25.9625 23.4438 26.35 24.025 26.35C24.4125 26.35 24.6063 26.1563 24.8 25.7688V24.8H26.35V25.9625C26.35 26.35 26.1563 26.5438 25.9625 26.9313C25.575 27.5125 24.9938 27.9 24.025 27.9C23.25 27.9 22.6688 27.5125 22.0875 26.9313C21.7 26.5438 21.5063 25.7688 21.5063 24.9938V22.0875C21.5063 21.1188 21.7 20.5375 21.8938 20.15C22.2813 19.5688 22.8625 19.1813 23.8313 19.1813C24.6063 19.1813 25.1875 19.5688 25.575 20.15C25.9625 20.5375 25.9625 21.3125 25.9625 22.0875V23.6375H26.35Z" fill="white"/>
</g>
<defs>
<clipPath id="clip0">
<rect width="31" height="31" fill="white"/>
</clipPath>
</defs>
</svg>
