<svg width="21" height="21" viewBox="0 0 21 21" fill="none" xmlns="http://www.w3.org/2000/svg">
<path d="M10.4148 5.23328C9.89562 5.23328 9.3881 5.38723 8.95642 5.67567C8.52475 5.96411 8.18829 6.37408 7.98961 6.85373C7.79093 7.33339 7.73895 7.86119 7.84023 8.37039C7.94152 8.87959 8.19153 9.34732 8.55864 9.71443C8.92575 10.0815 9.39348 10.3315 9.90268 10.4328C10.4119 10.5341 10.9397 10.4821 11.4193 10.2835C11.899 10.0848 12.309 9.74833 12.5974 9.31665C12.8858 8.88497 13.0398 8.37745 13.0398 7.85828C13.039 7.16233 12.7622 6.49511 12.2701 6.003C11.778 5.51088 11.1107 5.23407 10.4148 5.23328ZM10.4148 9.17077C10.1552 9.17077 9.90145 9.0938 9.68561 8.94958C9.46977 8.80536 9.30154 8.60038 9.2022 8.36055C9.10286 8.12072 9.07687 7.85682 9.12752 7.60222C9.17816 7.34762 9.30316 7.11375 9.48672 6.9302C9.67028 6.74664 9.90414 6.62164 10.1587 6.57099C10.4133 6.52035 10.6772 6.54634 10.9171 6.64568C11.1569 6.74502 11.3619 6.91325 11.5061 7.12909C11.6503 7.34493 11.7273 7.59869 11.7273 7.85828C11.7269 8.20625 11.5885 8.53985 11.3424 8.78591C11.0964 9.03196 10.7628 9.17037 10.4148 9.17077Z" fill="black"/>
<path d="M15.4593 2.81016C14.2121 1.5633 12.5473 0.82262 10.7861 0.731063C9.02495 0.639505 7.29229 1.20356 5.92255 2.31438C4.55281 3.42519 3.64308 5.00401 3.36895 6.74612C3.09483 8.48823 3.47573 10.2701 4.43814 11.7479L9.39722 19.3609C9.50757 19.5303 9.65847 19.6695 9.83621 19.7659C10.014 19.8622 10.2129 19.9127 10.4151 19.9127C10.6173 19.9127 10.8163 19.8622 10.994 19.7659C11.1718 19.6695 11.3227 19.5303 11.433 19.3609L16.3923 11.7479C17.2853 10.3771 17.6799 8.74089 17.5101 7.11366C17.3402 5.48643 16.6162 3.96704 15.4593 2.81016ZM15.2926 11.0315L10.4151 18.5189L5.53769 11.0315C4.04472 8.73958 4.36493 5.67244 6.29906 3.73822C6.83959 3.19768 7.48129 2.7689 8.18753 2.47636C8.89377 2.18382 9.65071 2.03325 10.4151 2.03325C11.1796 2.03325 11.9365 2.18382 12.6428 2.47636C13.349 2.7689 13.9907 3.19768 14.5312 3.73822C16.4654 5.67244 16.7855 8.73958 15.2926 11.0315Z" fill="black"/>
</svg>
