<svg width="106" height="106" viewBox="0 0 106 106" fill="none" xmlns="http://www.w3.org/2000/svg">
<path d="M53 0.65625C42.6474 0.65625 32.5272 3.72616 23.9193 9.47776C15.3115 15.2294 8.60243 23.4043 4.64066 32.9689C0.678883 42.5335 -0.357697 53.0581 1.662 63.2118C3.68169 73.3655 8.66695 82.6922 15.9874 90.0126C23.3078 97.333 32.6345 102.318 42.7882 104.338C52.9419 106.358 63.4665 105.321 73.0311 101.359C82.5956 97.3975 90.7706 90.6885 96.5222 82.0806C102.274 73.4727 105.344 63.3526 105.344 53C105.328 39.1224 99.8083 25.8176 89.9953 16.0047C80.1823 6.1917 66.8776 0.671905 53 0.65625ZM53 101.156C43.4756 101.156 34.1651 98.3319 26.2458 93.0405C18.3265 87.749 12.1542 80.228 8.5094 71.4286C4.86457 62.6292 3.91092 52.9466 5.76904 43.6052C7.62716 34.2638 12.2136 25.6832 18.9484 18.9484C25.6831 12.2136 34.2638 7.62718 43.6052 5.76906C52.9466 3.91094 62.6292 4.86459 71.4286 8.50943C80.228 12.1543 87.749 18.3266 93.0404 26.2458C98.3319 34.1651 101.156 43.4756 101.156 53C101.142 65.7674 96.0636 78.0078 87.0357 87.0357C78.0078 96.0636 65.7674 101.142 53 101.156ZM29.9687 42.5312C29.9687 41.703 30.2143 40.8934 30.6744 40.2048C31.1346 39.5162 31.7886 38.9794 32.5537 38.6625C33.3189 38.3456 34.1609 38.2626 34.9732 38.4242C35.7855 38.5858 36.5316 38.9846 37.1172 39.5702C37.7029 40.1559 38.1017 40.902 38.2633 41.7143C38.4248 42.5266 38.3419 43.3686 38.025 44.1337C37.708 44.8989 37.1713 45.5529 36.4827 46.013C35.794 46.4732 34.9844 46.7188 34.1562 46.7188C33.0456 46.7188 31.9805 46.2776 31.1952 45.4923C30.4099 44.707 29.9687 43.6418 29.9687 42.5312ZM67.6562 42.5312C67.6562 41.703 67.9018 40.8934 68.3619 40.2048C68.8221 39.5162 69.4761 38.9794 70.2412 38.6625C71.0064 38.3456 71.8484 38.2626 72.6607 38.4242C73.473 38.5858 74.2191 38.9846 74.8047 39.5702C75.3904 40.1559 75.7892 40.902 75.9508 41.7143C76.1123 42.5266 76.0294 43.3686 75.7125 44.1337C75.3955 44.8989 74.8588 45.5529 74.1702 46.013C73.4816 46.4732 72.6719 46.7188 71.8437 46.7188C70.7331 46.7188 69.668 46.2776 68.8827 45.4923C68.0974 44.707 67.6562 43.6418 67.6562 42.5312ZM76.5767 77.0766C76.8547 77.5572 76.9304 78.1287 76.7872 78.6652C76.6439 79.2017 76.2934 79.6593 75.8127 79.9374C75.332 80.2155 74.7606 80.2912 74.224 80.1479C73.6875 80.0047 73.2299 79.6541 72.9519 79.1734C70.9296 75.6714 68.0212 72.7634 64.519 70.7415C61.0168 68.7197 57.0441 67.6552 53.0001 67.6552C48.9562 67.6551 44.9834 68.7195 41.4812 70.7412C37.9789 72.763 35.0704 75.671 33.0481 79.1729C32.9117 79.4133 32.7291 79.6243 32.5107 79.7938C32.2923 79.9633 32.0425 80.0878 31.7758 80.1602C31.5091 80.2327 31.2306 80.2516 30.9565 80.2159C30.6824 80.1802 30.4181 80.0905 30.1788 79.9521C29.9396 79.8138 29.7301 79.6294 29.5624 79.4096C29.3948 79.1899 29.2723 78.9391 29.202 78.6717C29.1318 78.4044 29.1152 78.1258 29.1532 77.852C29.1911 77.5782 29.283 77.3147 29.4233 77.0766C31.8132 72.9386 35.2501 69.5026 39.3886 67.1137C43.5271 64.7248 48.2215 63.4672 53 63.4672C57.7785 63.4672 62.4728 64.7248 66.6113 67.1137C70.7498 69.5026 74.1867 72.9386 76.5767 77.0766Z" fill="#FB0092"/>
</svg>
