<svg width="16" height="18" viewBox="0 0 16 18" stroke="none" xmlns="http://www.w3.org/2000/svg">
	<path d="M8.00195 5.45825C7.33891 5.45825 6.70303 5.72164 6.23419 6.19048C5.76535 6.65933 5.50195 7.29521 5.50195 7.95825C5.50195 8.62129 5.76535 9.25718 6.23419 9.72602C6.70303 10.1949 7.33891 10.4583 8.00195 10.4583C8.66499 10.4583 9.30088 10.1949 9.76972 9.72602C10.2386 9.25718 10.502 8.62129 10.502 7.95825C10.502 7.29521 10.2386 6.65933 9.76972 6.19048C9.30088 5.72164 8.66499 5.45825 8.00195 5.45825ZM6.54362 7.95825C6.54362 7.57148 6.69727 7.20054 6.97076 6.92705C7.24425 6.65356 7.61518 6.49992 8.00195 6.49992C8.38873 6.49992 8.75966 6.65356 9.03315 6.92705C9.30664 7.20054 9.46029 7.57148 9.46029 7.95825C9.46029 8.34503 9.30664 8.71596 9.03315 8.98945C8.75966 9.26294 8.38873 9.41659 8.00195 9.41659C7.61518 9.41659 7.24425 9.26294 6.97076 8.98945C6.69727 8.71596 6.54362 8.34503 6.54362 7.95825Z" />
	<path d="M13.4165 12.3333L9.21318 16.7958C9.05736 16.9613 8.86934 17.0931 8.66068 17.1832C8.45202 17.2733 8.22714 17.3198 7.99985 17.3198C7.77256 17.3198 7.54767 17.2733 7.33902 17.1832C7.13036 17.0931 6.94234 16.9613 6.78651 16.7958L2.58318 12.3333H2.59901L2.59193 12.325L2.58318 12.3145C1.5043 11.0386 0.913647 9.42091 0.916514 7.74996C0.916514 3.83788 4.08776 0.666626 7.99985 0.666626C11.9119 0.666626 15.0832 3.83788 15.0832 7.74996C15.0861 9.42091 14.4954 11.0386 13.4165 12.3145L13.4078 12.325L13.4007 12.3333H13.4165ZM12.6069 11.6587C13.5353 10.5682 14.044 9.18213 14.0415 7.74996C14.0415 4.41329 11.3365 1.70829 7.99985 1.70829C4.66318 1.70829 1.95818 4.41329 1.95818 7.74996C1.95818 9.24163 2.49735 10.605 3.39276 11.6587L3.5211 11.81L7.54485 16.0812C7.60328 16.1433 7.67379 16.1927 7.75204 16.2265C7.83028 16.2603 7.91462 16.2777 7.99985 16.2777C8.08508 16.2777 8.16941 16.2603 8.24766 16.2265C8.32591 16.1927 8.39641 16.1433 8.45485 16.0812L12.4786 11.81L12.6069 11.6587Z" />
</svg>
