<svg width="17" height="19" viewBox="0 0 17 19" fill="none" xmlns="http://www.w3.org/2000/svg">
<path d="M14.5139 2.56142C13.7331 1.78159 12.8047 1.16519 11.783 0.748226C10.7613 0.331263 9.66679 0.122104 8.56333 0.132971C8.54192 0.132807 8.52084 0.132725 8.49943 0.132725C6.28041 0.132877 4.15233 1.01448 2.5833 2.58362C1.01427 4.15276 0.132812 6.2809 0.132812 8.49991V13.0937C0.133355 13.5721 0.323666 14.0308 0.661993 14.3692C1.00032 14.7075 1.45903 14.8978 1.9375 14.8983H3.25C3.72847 14.8978 4.18718 14.7075 4.52551 14.3692C4.86383 14.0308 5.05414 13.5721 5.05469 13.0937V9.81241C5.05414 9.33395 4.86383 8.87523 4.52551 8.53691C4.18718 8.19858 3.72847 8.00827 3.25 8.00772H1.13318C1.25831 6.13789 2.08976 4.38558 3.45897 3.10604C4.82818 1.82651 6.63271 1.11548 8.50673 1.1171L8.56333 1.11726C10.4458 1.10305 12.2627 1.80842 13.6424 3.08919C15.0221 4.36995 15.8606 6.12937 15.9863 8.00772H13.8694C13.391 8.00827 12.9323 8.19858 12.5939 8.53691C12.2556 8.87523 12.0653 9.33395 12.0647 9.81241V13.0937C12.0653 13.5721 12.2556 14.0308 12.5939 14.3692C12.9323 14.7075 13.391 14.8978 13.8694 14.8983H15.1819C15.4672 14.8986 15.7485 14.8307 16.0022 14.7003V15.0624C16.0016 15.6279 15.7767 16.17 15.3768 16.5698C14.977 16.9697 14.4349 17.1946 13.8694 17.1952H9.15625C9.02571 17.1952 8.90052 17.2471 8.80822 17.3394C8.71592 17.4317 8.66406 17.5569 8.66406 17.6874C8.66406 17.8179 8.71592 17.9431 8.80822 18.0354C8.90052 18.1277 9.02571 18.1796 9.15625 18.1796H13.8694C14.6959 18.1787 15.4882 17.8499 16.0726 17.2656C16.657 16.6812 16.9857 15.8889 16.9866 15.0624V8.49991C16.9898 7.3954 16.7728 6.30133 16.3482 5.28168C15.9236 4.26203 15.3 3.33725 14.5139 2.56142ZM3.25 8.9921C3.46749 8.99234 3.676 9.07884 3.82979 9.23263C3.98357 9.38641 4.07007 9.59492 4.07031 9.81241V13.0937C4.07005 13.3111 3.98354 13.5196 3.82976 13.6734C3.67598 13.8272 3.46748 13.9137 3.25 13.914H1.9375C1.72002 13.9137 1.51152 13.8272 1.35774 13.6734C1.20396 13.5196 1.11745 13.3111 1.11719 13.0937V8.9921H3.25ZM15.1819 13.914H13.8694C13.652 13.9137 13.4435 13.8272 13.2897 13.6734C13.1359 13.5196 13.0494 13.3111 13.0491 13.0937V9.81241C13.0494 9.59492 13.1359 9.38641 13.2897 9.23263C13.4434 9.07884 13.6519 8.99234 13.8694 8.9921H16.0022V13.0937C16.002 13.3111 15.9155 13.5196 15.7617 13.6734C15.6079 13.8272 15.3994 13.9137 15.1819 13.914Z" fill="black"/>
</svg>
