<svg xmlns="http://www.w3.org/2000/svg">

	<!-- width="22" height="12" fill -->
	<symbol id="arrow_left" viewBox="0 0 22 12">
		<path d="M6.53671 11.7846L7.50896 10.8123L3.38409 6.68745L21.3125 6.68745L21.3125 5.31241L3.38422 5.31241L7.50896 1.18766L6.53671 0.215413L0.752039 5.99999L6.53671 11.7846Z" />
	</symbol>

	<!-- width="22" height="12" fill -->
	<symbol id="arrow_right" viewBox="0 0 22 12">
		<path d="M15.4633 0.215424L14.491 1.18768L18.6159 5.31255H0.6875V6.68759H18.6158L14.491 10.8123L15.4633 11.7846L21.248 6.00001L15.4633 0.215424Z" />
	</symbol>

	<!-- width="20" height="20" stroke -->
	<symbol id="bag" viewBox="0 0 20 20" stroke-linecap="round" stroke-linejoin="round" fill="none">
		<path d="M3.125 6.875C2.95924 6.875 2.80027 6.94085 2.68306 7.05806C2.56585 7.17527 2.5 7.33424 2.5 7.5V15.9375C2.5 17.1187 3.50625 18.125 4.6875 18.125H15.3125C16.4937 18.125 17.5 17.1676 17.5 15.9863V7.5C17.5 7.33424 17.4342 7.17527 17.3169 7.05806C17.1997 6.94085 17.0408 6.875 16.875 6.875H3.125Z" />
		<path d="M6.25 6.875V5.625C6.25 4.63044 6.64509 3.67661 7.34835 2.97335C8.05161 2.27009 9.00544 1.875 10 1.875V1.875C10.9946 1.875 11.9484 2.27009 12.6517 2.97335C13.3549 3.67661 13.75 4.63044 13.75 5.625V6.875" />
	</symbol>

	<!-- width="8" height="15" fill -->
	<symbol id="chevron_left" viewBox="0 0 8 15">
		<path d="M6.82992 15C6.68052 15.0005 6.53291 14.9676 6.39794 14.9035C6.26296 14.8395 6.14404 14.7461 6.04992 14.63L1.21992 8.63003C1.07284 8.4511 0.992432 8.22666 0.992432 7.99503C0.992432 7.76341 1.07284 7.53896 1.21992 7.36003L6.21992 1.36003C6.38966 1.15581 6.63357 1.02739 6.898 1.00301C7.16242 0.978631 7.4257 1.06029 7.62992 1.23003C7.83414 1.39977 7.96256 1.64368 7.98694 1.90811C8.01132 2.17253 7.92966 2.43581 7.75992 2.64003L3.28992 8.00003L7.60992 13.36C7.7322 13.5068 7.80988 13.6856 7.83376 13.8751C7.85764 14.0647 7.82672 14.2571 7.74467 14.4296C7.66261 14.6021 7.53285 14.7475 7.37074 14.8486C7.20863 14.9497 7.02095 15.0023 6.82992 15Z" />
	</symbol>

	<!-- width="17" height="27" stroke -->
	<symbol id="fc" viewBox="0 0 17 27" stroke-width="2" stroke-linecap="round" stroke-linejoin="round" fill="none">
		<path d="M15.5 1.41675H11.75C10.0924 1.41675 8.50269 2.05328 7.33058 3.18631C6.15848 4.31934 5.5 5.85607 5.5 7.45841V11.0834H1.75V15.9167H5.5V25.5834H10.5V15.9167H14.25L15.5 11.0834H10.5V7.45841C10.5 7.13794 10.6317 6.8306 10.8661 6.60399C11.1005 6.37739 11.4185 6.25008 11.75 6.25008H15.5V1.41675Z" />
	</symbol>

	<!-- width="26" height="18" stroke -->
	<symbol id="hamb" viewBox="0 0 26 18" stroke-width="2" stroke-linecap="round" stroke-linejoin="round">
		<path d="M1 17H25M1 1H25H1ZM1 9H25H1Z" />
	</symbol>

	<!-- width="24" height="24" fill -->
	<symbol id="heart" viewBox="0 0 24 24" fill-rule="evenodd" clip-rule="evenodd" stroke="none">
		<path d="M5.1725 5.994C4.4425 6.923 4 8.192 4 9.5175C4 12.4875 5.9825 14.981 8.075 16.7755C9.28118 17.8012 10.595 18.6931 11.9935 19.4355L12.1195 19.3655C13.4721 18.5979 14.7455 17.6983 15.921 16.68C18.022 14.8455 20 12.3525 20 9.517C20 8.192 19.5575 6.9225 18.828 5.9935C18.1 5.0685 17.1065 4.5 15.9845 4.5C14.433 4.5 13.2295 5.51 12.449 7.101L12 8.015L11.551 7.101C10.7705 5.51 9.567 4.5 8.016 4.5C6.8935 4.5 5.9 5.068 5.1725 5.994ZM12 20L11.783 20.45L11.7805 20.449L11.775 20.4465L11.7545 20.4365C11.6351 20.3768 11.5166 20.3155 11.399 20.2525C9.98238 19.4886 8.65019 18.5776 7.4245 17.5345C5.2675 15.6855 3 12.9375 3 9.517C3 7.9795 3.5105 6.49 4.386 5.376C5.264 4.259 6.528 3.5 8.016 3.5C9.7675 3.5 11.0995 4.4815 12 5.867C12.9 4.482 14.2325 3.5 15.9845 3.5C17.472 3.5 18.7365 4.259 19.6145 5.3765C20.489 6.49 21 7.98 21 9.5175C21 12.8085 18.728 15.557 16.579 17.433C15.2713 18.5653 13.8477 19.5565 12.332 20.39L12.2565 20.43L12.2365 20.441L12.2305 20.4435L12.229 20.4445H12.2285C12.2285 20.4445 12.228 20.445 12 20ZM12 20L12.2285 20.445L12.007 20.5585L11.783 20.4505L12 20Z" />
	</symbol>

	<!-- width="36" height="36" fill -->
	<symbol id="int" viewBox="0 0 36 36" stroke="none">
		<path d="M17.9985 11.0654C16.159 11.0654 14.3948 11.7962 13.094 13.0969C11.7933 14.3977 11.0625 16.1619 11.0625 18.0014C11.0625 19.841 11.7933 21.6052 13.094 22.9059C14.3948 24.2067 16.159 24.9374 17.9985 24.9374C19.838 24.9374 21.6022 24.2067 22.903 22.9059C24.2037 21.6052 24.9345 19.841 24.9345 18.0014C24.9345 16.1619 24.2037 14.3977 22.903 13.0969C21.6022 11.7962 19.838 11.0654 17.9985 11.0654ZM17.9985 22.5059C16.8034 22.5059 15.6573 22.0312 14.8123 21.1862C13.9672 20.3411 13.4925 19.195 13.4925 17.9999C13.4925 16.8049 13.9672 15.6587 14.8123 14.8137C15.6573 13.9687 16.8034 13.4939 17.9985 13.4939C19.1936 13.4939 20.3397 13.9687 21.1847 14.8137C22.0298 15.6587 22.5045 16.8049 22.5045 17.9999C22.5045 19.195 22.0298 20.3411 21.1847 21.1862C20.3397 22.0312 19.1936 22.5059 17.9985 22.5059Z" />
		<path d="M25.209 12.4275C26.1021 12.4275 26.826 11.7035 26.826 10.8105C26.826 9.91744 26.1021 9.19348 25.209 9.19348C24.316 9.19348 23.592 9.91744 23.592 10.8105C23.592 11.7035 24.316 12.4275 25.209 12.4275Z" />
		<path d="M30.7995 9.16645C30.4522 8.26972 29.9216 7.45537 29.2415 6.77553C28.5614 6.0957 27.7469 5.56535 26.85 5.21845C25.8005 4.82448 24.6918 4.61146 23.571 4.58845C22.1265 4.52545 21.669 4.50745 18.006 4.50745C14.343 4.50745 13.8735 4.50745 12.441 4.58845C11.3211 4.61028 10.2131 4.82335 9.16499 5.21845C8.2679 5.56495 7.45314 6.09515 6.77299 6.77504C6.09285 7.45493 5.56233 8.26948 5.21549 9.16645C4.82145 10.2159 4.60891 11.3247 4.58699 12.4454C4.52249 13.8884 4.50299 14.3459 4.50299 18.0104C4.50299 21.6734 4.50299 22.1399 4.58699 23.5754C4.60949 24.6974 4.82099 25.8044 5.21549 26.8559C5.56331 27.7526 6.09433 28.5668 6.77464 29.2466C7.45495 29.9264 8.26959 30.4568 9.16649 30.8039C10.2126 31.2137 11.321 31.442 12.444 31.4789C13.8885 31.5419 14.346 31.5614 18.009 31.5614C21.672 31.5614 22.1415 31.5614 23.574 31.4789C24.6946 31.4562 25.8033 31.2436 26.853 30.8504C27.7496 30.5027 28.5639 29.9719 29.2439 29.2919C29.924 28.6119 30.4548 27.7976 30.8025 26.9009C31.197 25.8509 31.4085 24.7439 31.431 23.6219C31.4955 22.1789 31.515 21.7214 31.515 18.0569C31.515 14.3924 31.515 13.9274 31.431 12.4919C31.4135 11.3554 31.1999 10.2303 30.7995 9.16645ZM28.9725 23.4644C28.9628 24.3289 28.805 25.1853 28.506 25.9964C28.2807 26.5797 27.9359 27.1094 27.4936 27.5515C27.0513 27.9935 26.5214 28.338 25.938 28.5629C25.1358 28.8606 24.2885 29.0184 23.433 29.0294C22.008 29.0954 21.606 29.1119 17.952 29.1119C14.295 29.1119 13.9215 29.1119 12.4695 29.0294C11.6144 29.019 10.7675 28.8612 9.96599 28.5629C9.38052 28.3394 8.84849 27.9955 8.40433 27.5534C7.96016 27.1113 7.61374 26.5809 7.38749 25.9964C7.09266 25.194 6.93496 24.3477 6.92099 23.4929C6.85649 22.0679 6.84149 21.6659 6.84149 18.0119C6.84149 14.3564 6.84149 13.9829 6.92099 12.5294C6.93069 11.6655 7.08847 10.8096 7.38749 9.99895C7.84499 8.81545 8.78249 7.88395 9.96599 7.43095C10.7679 7.13416 11.6145 6.97639 12.4695 6.96445C13.896 6.89995 14.2965 6.88195 17.952 6.88195C21.6075 6.88195 21.9825 6.88195 23.433 6.96445C24.2886 6.97474 25.136 7.13255 25.938 7.43095C26.5214 7.65636 27.0512 8.00125 27.4934 8.44349C27.9357 8.88573 28.2806 9.41555 28.506 9.99895C28.8008 10.8014 28.9585 11.6477 28.9725 12.5024C29.037 13.9289 29.0535 14.3294 29.0535 17.9849C29.0535 21.6389 29.0535 22.0319 28.989 23.4659H28.9725V23.4644Z" />
	</symbol>

	<!-- width="155" height="35" fill -->
	<symbol id="logo_flormar" viewBox="0 0 120 27">
		<path d="M5.79458804,13.4978785 L5.79458804,26.9991514 L1.93096275,26.9991514 L1.93096275,13.4978785 L5.54223334e-13,13.4978785 L5.54223334e-13,9.6426753 L1.93011285,9.6426753 C1.93011285,6.98145645 2.87434684,4.71059496 4.76111502,2.82499921 C6.6470333,0.942797875 8.92390355,0 11.5891761,0 L11.5891761,3.8569004 C9.9913724,3.8569004 8.62559021,4.42291857 7.49437919,5.5549549 C6.36061849,6.68699123 5.79458804,8.04899896 5.79458804,9.6426753 L5.79458804,13.4978785 Z M15.3797104,0 L19.2424857,0 L19.2424857,26.9991514 L15.3797104,26.9991514 L15.3797104,0 Z M31.6203649,26.9991514 C28.9550924,26.9991514 26.679072,26.0546563 24.7940037,24.1750008 C22.9055357,22.2902536 21.9621516,20.0168463 21.9621516,17.3564761 C21.9621516,14.69356 22.9055357,12.4226986 24.7940037,10.5388 C26.6782221,8.65659867 28.9550924,7.7138008 31.6203649,7.7138008 C34.2847876,7.7138008 36.5608079,8.65575007 38.448426,10.5388 C40.3343443,12.4226986 41.2777284,14.69356 41.2777284,17.3564761 C41.2777284,20.0159977 40.3343443,22.2902536 38.448426,24.1750008 C36.5608079,26.0555049 34.2847876,26.9991514 31.6203649,26.9991514 Z M31.6203649,11.5707012 C30.0225612,11.5707012 28.6584788,12.1367194 27.5247181,13.2679071 C26.3926572,14.4016406 25.824927,15.7611026 25.824927,17.3564761 C25.824927,18.9493038 26.3926572,20.3130088 27.5247181,21.4450451 C28.6584788,22.5753842 30.0225612,23.142251 31.6203649,23.142251 C33.214769,23.142251 34.5814011,22.5753842 35.7151618,21.4450451 C36.8480726,20.3130088 37.4141031,18.9493038 37.4141031,17.3564761 C37.4141031,15.7611026 36.8489225,14.4016406 35.7151618,13.2679071 C34.5814011,12.1367194 33.214769,11.5707012 31.6203649,11.5707012 Z M57.1707756,7.7146494 L61.0327011,7.7146494 L61.0327011,8.71854669 C62.1783604,8.04899896 63.4651023,7.7146494 64.8937767,7.7146494 C67.0312641,7.7146494 68.8525903,8.46651161 70.3603051,9.97023604 C70.4775907,10.0864946 70.5872272,10.2027532 70.6900646,10.3173146 C70.7912021,10.2027532 70.9016886,10.0864946 71.0164245,9.97023604 C72.5241392,8.46651161 74.3463153,7.7146494 76.4829528,7.7146494 C78.6204402,7.7146494 80.4426163,8.46651161 81.9477814,9.97023604 C83.4554961,11.4748091 84.2085036,13.2942138 84.2085036,15.4284502 L84.2085036,27 L80.3457282,27 L80.3457282,15.4284502 C80.3457282,14.3609077 79.9709243,13.4529025 79.216217,12.6993431 C78.4640594,11.9466323 77.5521215,11.5707012 76.4829528,11.5707012 C75.4146341,11.5707012 74.503546,11.9457837 73.7488387,12.6993431 C72.9966812,13.4529025 72.6218772,14.3609077 72.6218772,15.4284502 L72.6218772,27 L68.7565521,27 L68.7565521,15.4284502 C68.7565521,14.3609077 68.3808983,13.4529025 67.6270409,12.6993431 C66.8757332,11.9466323 65.9629454,11.5707012 64.8937767,11.5707012 C63.8246081,11.5707012 62.9143699,11.9457837 62.1630623,12.6993431 C61.408355,13.4529025 61.0327011,14.3609077 61.0327011,15.4284502 L61.0327011,27 L57.1707756,27 L57.1707756,7.7146494 Z M102.380971,25.0880976 C100.719425,26.3618506 98.7893121,26.9991514 96.5863828,26.9991514 C93.92281,26.9991514 91.6459398,26.0546563 89.7600215,24.1750008 C87.8732533,22.2902536 86.9298692,20.0168463 86.9298692,17.3564761 C86.9298692,14.69356 87.8732533,12.4226986 89.7600215,10.5388 C91.6459398,8.65659867 93.92281,7.7138008 96.5863828,7.7138008 C98.7893121,7.7138008 100.719425,8.35025301 102.380971,9.62400603 L102.380971,7.7146494 L106.243746,7.7146494 L106.243746,27 L102.380971,27 L102.380971,25.0880976 Z M96.5872327,11.5707012 C94.9902789,11.5707012 93.6270464,12.1367194 92.4932857,13.2679071 C91.3603749,14.4016406 90.7943444,15.7611026 90.7943444,17.3564761 C90.7943444,18.9493038 91.3603749,20.3130088 92.4932857,21.4450451 C93.6261965,22.5753842 94.9902789,23.142251 96.5872327,23.142251 C98.1824867,23.142251 99.5491188,22.5753842 100.68203,21.4450451 C101.81494,20.3130088 102.381821,18.9493038 102.381821,17.3564761 C102.381821,15.7611026 101.81494,14.4016406 100.68203,13.2679071 C99.5491188,12.1367194 98.1816368,11.5707012 96.5872327,11.5707012 Z M53.179666,7.73247006 C53.47288,7.7146494 53.6556075,7.7146494 53.6564574,7.7146494 L53.6564574,11.5715498 C52.0595036,11.5715498 50.5084442,11.9254172 49.3755334,13.056605 C48.2443224,14.1869441 47.8610195,15.7619512 47.8610195,17.3573247 L47.8610195,26.9991514 L43.999094,26.9991514 L43.999094,16.9364176 L43.999094,14.7461734 C44.0628362,14.3778797 44.1656735,14.0299525 44.2863587,13.699846 C45.4685634,9.88707295 48.849448,8.50639595 51.2113079,8.00402301 C51.8393807,7.85042587 52.4980498,7.76047396 53.179666,7.73247006 Z M118.947135,7.73247006 C119.240349,7.7146494 119.423077,7.7146494 119.423077,7.7146494 L119.423077,11.5715498 C117.826123,11.5715498 116.275914,11.9254172 115.143003,13.056605 C114.010092,14.1869441 113.630189,15.7619512 113.630189,17.3573247 L113.630189,26.9991514 L109.767413,26.9991514 L109.767413,16.9364176 L109.767413,14.7461734 C109.830306,14.3778797 109.931443,14.0299525 110.053828,13.699846 C111.235183,9.88707295 114.616068,8.50639595 116.978777,8.00402301 C117.60685,7.85042587 118.264669,7.76047396 118.947135,7.73247006 Z M12.9507088,11.8804413 C12.9507088,13.3510702 11.7557556,14.5450545 10.2811868,14.5450545 C8.80746786,14.5450545 7.61166478,13.3519188 7.61166478,11.8804413 C7.61166478,10.4089638 8.80746786,9.21497941 10.2811868,9.21497941 C11.7557556,9.21413081 12.9507088,10.4081152 12.9507088,11.8804413 Z"></path>
	</symbol>

	<!-- width="17" height="21" fill -->
	<symbol id="mapmarker" viewBox="2 0 17 21">
		<path d="M10.4148 5.23328C9.89562 5.23328 9.3881 5.38723 8.95642 5.67567C8.52475 5.96411 8.18829 6.37408 7.98961 6.85373C7.79093 7.33339 7.73895 7.86119 7.84023 8.37039C7.94152 8.87959 8.19153 9.34732 8.55864 9.71443C8.92575 10.0815 9.39348 10.3315 9.90268 10.4328C10.4119 10.5341 10.9397 10.4821 11.4193 10.2835C11.899 10.0848 12.309 9.74833 12.5974 9.31665C12.8858 8.88497 13.0398 8.37745 13.0398 7.85828C13.039 7.16233 12.7622 6.49511 12.2701 6.003C11.778 5.51088 11.1107 5.23407 10.4148 5.23328ZM10.4148 9.17077C10.1552 9.17077 9.90145 9.0938 9.68561 8.94958C9.46977 8.80536 9.30154 8.60038 9.2022 8.36055C9.10286 8.12072 9.07687 7.85682 9.12752 7.60222C9.17816 7.34762 9.30316 7.11375 9.48672 6.9302C9.67028 6.74664 9.90414 6.62164 10.1587 6.57099C10.4133 6.52035 10.6772 6.54634 10.9171 6.64568C11.1569 6.74502 11.3619 6.91325 11.5061 7.12909C11.6503 7.34493 11.7273 7.59869 11.7273 7.85828C11.7269 8.20625 11.5885 8.53985 11.3424 8.78591C11.0964 9.03196 10.7628 9.17037 10.4148 9.17077Z" />
		<path d="M15.4593 2.81016C14.2121 1.5633 12.5473 0.82262 10.7861 0.731063C9.02495 0.639505 7.29229 1.20356 5.92255 2.31438C4.55281 3.42519 3.64308 5.00401 3.36895 6.74612C3.09483 8.48823 3.47573 10.2701 4.43814 11.7479L9.39722 19.3609C9.50757 19.5303 9.65847 19.6695 9.83621 19.7659C10.014 19.8622 10.2129 19.9127 10.4151 19.9127C10.6173 19.9127 10.8163 19.8622 10.994 19.7659C11.1718 19.6695 11.3227 19.5303 11.433 19.3609L16.3923 11.7479C17.2853 10.3771 17.6799 8.74089 17.5101 7.11366C17.3402 5.48643 16.6162 3.96704 15.4593 2.81016ZM15.2926 11.0315L10.4151 18.5189L5.53769 11.0315C4.04472 8.73958 4.36493 5.67244 6.29906 3.73822C6.83959 3.19768 7.48129 2.7689 8.18753 2.47636C8.89377 2.18382 9.65071 2.03325 10.4151 2.03325C11.1796 2.03325 11.9365 2.18382 12.6428 2.47636C13.349 2.7689 13.9907 3.19768 14.5312 3.73822C16.4654 5.67244 16.7855 8.73958 15.2926 11.0315Z" />
	</symbol>

	<!-- width="20" height="20" stroke -->
	<symbol id="person" viewBox="0 0 20 20" fill="none">
		<path d="M13.4375 5.625C13.2844 7.69023 11.7188 9.375 10 9.375C8.28125 9.375 6.71289 7.69063 6.5625 5.625C6.40625 3.47656 7.92969 1.875 10 1.875C12.0703 1.875 13.5938 3.51562 13.4375 5.625Z" stroke-linecap="round" stroke-linejoin="round"/>
		<path d="M10 11.875C6.60157 11.875 3.15235 13.75 2.51407 17.2891C2.43711 17.7156 2.67852 18.125 3.125 18.125H16.875C17.3219 18.125 17.5633 17.7156 17.4863 17.2891C16.8477 13.75 13.3984 11.875 10 11.875Z" stroke-miterlimit="10" />
	</symbol>

	<!-- width="16" height="19" fill -->
	<symbol id="phone" viewBox="0 0 16 19">
		<path d="M14.7982 2.02716L14.7741 2.00793L11.7298 0.0915222L8.44401 5.68955L9.95572 8.26524C9.91049 9.23659 9.58811 10.153 9.04962 10.8411C8.51113 11.5292 7.7939 11.9411 7.03371 11.9989L5.01799 10.0672L0.636963 14.2657L2.12428 18.1231L2.1368 18.1556L2.15188 18.1864C2.23125 18.3498 2.34203 18.4845 2.47368 18.5778C2.60533 18.671 2.75346 18.7196 2.90398 18.719H3.68951C5.20306 18.719 6.70179 18.3381 8.10013 17.598C9.49847 16.8579 10.769 15.7731 11.8393 14.4056C12.9095 13.038 13.7585 11.4145 14.3377 9.62775C14.9169 7.84098 15.215 5.92594 15.215 3.99195V2.98818C15.2155 2.79585 15.1774 2.60657 15.1045 2.43836C15.0315 2.27014 14.9261 2.12858 14.7982 2.02716ZM14.09 3.99195C14.09 11.3198 9.42434 17.2815 3.68951 17.2815H3.05388L2.05875 14.7002L5.0182 11.864L6.66587 13.443H6.85336C7.97559 13.4414 9.05149 12.871 9.84503 11.8571C10.6386 10.8431 11.0849 9.46834 11.0862 8.03439V7.79482L9.85047 5.68951L12.0698 1.90821L14.09 3.17999V3.99195Z" />
	</symbol>

	<!-- width="19" height="19" stroke -->
	<symbol id="search" viewBox="0 0 19 19" stroke-linecap="round" stroke-linejoin="round" fill="none">
		<path d="M8.3125 15.4375C12.2475 15.4375 15.4375 12.2475 15.4375 8.3125C15.4375 4.37747 12.2475 1.1875 8.3125 1.1875C4.37747 1.1875 1.1875 4.37747 1.1875 8.3125C1.1875 12.2475 4.37747 15.4375 8.3125 15.4375Z" />
		<path d="M13.6562 13.6562L17.8125 17.8125" />
	</symbol>

	<!-- width="31" height="31" fill -->
	<symbol id="youtube" viewBox="0 0 31 31" stroke="none">
		<path d="M12.7875 0H11.0437L9.88125 4.45625L8.71875 0H6.78125C7.16875 1.1625 7.55625 2.13125 7.94375 3.29375C8.525 4.84375 8.9125 6.2 8.9125 6.975V11.625H10.6562V6.975L12.7875 0ZM17.4375 8.71875V5.8125C17.4375 4.84375 17.2437 4.2625 16.8562 3.68125C16.4688 3.1 15.8875 2.90625 15.1125 2.90625C14.3375 2.90625 13.7563 3.29375 13.3688 3.875C12.9813 4.2625 12.7875 4.84375 12.7875 5.8125V8.9125C12.7875 9.88125 12.9813 10.4625 13.3688 10.85C13.7563 11.4312 14.3375 11.625 15.1125 11.625C15.8875 11.625 16.4688 11.2375 16.8562 10.6562C17.2437 10.4625 17.4375 9.6875 17.4375 8.71875ZM15.8875 9.10625C15.8875 9.88125 15.6938 10.2688 15.1125 10.2688C14.5313 10.2688 14.3375 9.88125 14.3375 9.10625V5.425C14.3375 4.65 14.5313 4.2625 15.1125 4.2625C15.6938 4.2625 15.8875 4.65 15.8875 5.425V9.10625ZM23.25 11.625V2.90625H21.7V9.49375C21.3125 10.075 21.1187 10.2688 20.7312 10.2688C20.5375 10.2688 20.3438 10.075 20.3438 9.88125V2.90625H18.7937V9.6875C18.7937 10.2688 18.7938 10.6562 18.9875 11.0437C18.9875 11.4312 19.375 11.625 19.9563 11.625C20.5375 11.625 21.1187 11.2375 21.7 10.6562V11.625H23.25Z" />
		<path d="M24.025 20.3438C23.4437 20.3438 23.25 20.7313 23.25 21.5063V22.2812H24.8V21.5063C24.8 20.7313 24.6062 20.3438 24.025 20.3438Z" />
		<path d="M18.4062 20.3438C18.2125 20.3438 17.825 20.5375 17.6312 20.7312V25.9625C17.825 26.1562 18.2125 26.35 18.4062 26.35C18.7937 26.35 18.9875 25.9625 18.9875 25.1875V21.5063C18.9875 20.7313 18.7937 20.3438 18.4062 20.3438Z" />
		<path d="M27.9 16.0813C27.5125 14.725 26.35 13.5625 25.1875 13.5625C22.0875 13.175 18.7938 13.175 15.5 13.175C12.2063 13.175 9.10627 13.175 5.81252 13.5625C4.65002 13.5625 3.48752 14.725 3.10002 16.0813C2.71252 18.0188 2.71252 20.15 2.71252 22.0875C2.71252 24.025 2.71252 26.1563 3.10002 28.0938C3.48752 29.4501 4.45627 30.4188 5.81252 30.6126C9.10627 31 12.2063 31 15.5 31C18.7938 31 21.8938 31 25.1875 30.6126C26.5438 30.4188 27.7063 29.4501 27.9 28.0938C28.2875 26.1563 28.2875 24.025 28.2875 22.0875C28.2875 20.15 28.2875 18.0188 27.9 16.0813ZM10.075 17.825H8.13752V27.7063H6.39377V17.825H4.65002V16.0813H10.075V17.825ZM14.725 27.7063H13.175V26.7375C12.5938 27.5125 12.0125 27.7063 11.4313 27.7063C10.85 27.7063 10.6563 27.5125 10.4625 27.125C10.4625 26.9313 10.2688 26.5438 10.2688 25.7688V18.9875H11.8188V25.7688C11.8188 25.9625 12.0125 26.1563 12.2063 26.1563C12.5938 26.1563 12.7875 25.9626 13.175 25.3813V18.9875H14.725V27.7063ZM20.5375 24.9938C20.5375 25.7688 20.5375 26.35 20.3438 26.7375C20.15 27.3188 19.7625 27.7063 19.1813 27.7063C18.6 27.7063 18.0188 27.3188 17.6313 26.7375V27.5125H16.0813V16.0813H17.6313V19.7625C18.2125 19.1813 18.6 18.7938 19.1813 18.7938C19.7625 18.7938 20.15 19.1813 20.3438 19.7625C20.5375 20.15 20.5375 20.7313 20.5375 21.5063V24.9938ZM26.35 23.6375H23.25V25.1875C23.25 25.9625 23.4438 26.35 24.025 26.35C24.4125 26.35 24.6063 26.1563 24.8 25.7688V24.8H26.35V25.9625C26.35 26.35 26.1563 26.5438 25.9625 26.9313C25.575 27.5125 24.9938 27.9 24.025 27.9C23.25 27.9 22.6688 27.5125 22.0875 26.9313C21.7 26.5438 21.5063 25.7688 21.5063 24.9938V22.0875C21.5063 21.1188 21.7 20.5375 21.8938 20.15C22.2813 19.5688 22.8625 19.1813 23.8313 19.1813C24.6063 19.1813 25.1875 19.5688 25.575 20.15C25.9625 20.5375 25.9625 21.3125 25.9625 22.0875V23.6375H26.35Z" />
	</symbol>

</svg>
